<svg id="Layer_1" enable-background="new 0 0 3000 3000" height="512" viewBox="0 0 3000 3000" width="512" xmlns="http://www.w3.org/2000/svg"><g><path d="m2632 1500c0 123.1-18.1 241.7-51.7 353.2-144.2 478.6-573.5 825.8-1080.8 825.8-625.5-.1-1132.5-527.9-1132.5-1179 0-65.5 5.1-129.8 15-192.4 88.2-559.6 555-986.6 1117.5-986.6 625.5 0 1132.5 527.8 1132.5 1179z" fill="#b1cd0a"/></g><g><path d="m1878.4 388.2c-5.2 15-17.4 27.2-33.9 31.7-2.5.7-140.5 38.8-323.2 126.5-107.4 51.6-209 110-302 173.6-115.7 79.1-218.3 166.6-305.1 259.9-74 79.6-122 178.4-138.8 285.7s-1.3 216.1 44.9 314.4c35.6 75.9 86.3 140.6 150.7 192.3 60.8 48.9 133.3 84.8 209.7 103.7 76.3 19 157.2 21.2 233.8 6.5 81.1-15.6 156.2-49 223.2-99.4l299.1-224.9c89.2-67.1 186-124.6 287.6-171 101.6-46.3 208.5-81.7 317.6-105.1l66-14.2c.7-.1 1.4-.3 2.1-.4v.1l14.7 98-62 13.3c-102.2 21.9-202.2 55-297.3 98.4s-185.6 97.2-269.2 160l-299.1 224.9c-112.6 84.7-247.3 129-384.7 129-51.8 0-104.1-6.3-155.7-19.1-188.3-46.8-343.6-174.4-426.1-350.1-54.6-116.3-72.9-244.8-53-371.8 19.9-126.9 76.6-243.7 164.1-337.8 92-99 200.7-191.6 323-275 97.4-66.5 203.7-127.5 315.9-181.3 109.3-52.4 202.2-87.4 262.8-108.1z" fill="#fff"/></g><path d="m2580.3 1853.2c-144.2 478.6-573.5 825.8-1080.8 825.8-625.5-.1-1132.5-527.9-1132.5-1179 0-65.5 5.1-129.8 15-192.4 98.4 26.3 654.8 203.5 905 900.4 275 766 904.6-731.6 1293.3-354.8z" fill="#019c4f" opacity=".22"/></svg>